<svg width="122" height="122" viewBox="0 0 122 122" fill="none" xmlns="http://www.w3.org/2000/svg">
<g filter="url(#filter0_ddd_221_43)">
<rect x="27" y="27" width="70" height="70" rx="20" fill="#E3E7F7"/>
<rect x="26.5" y="26.5" width="71" height="71" rx="20.5" stroke="url(#paint0_linear_221_43)" stroke-opacity="0.46"/>
</g>
<path d="M55 44C56.2445 44 57.25 45.0055 57.25 46.25V48.5H66.25V46.25C66.25 45.0055 67.2555 44 68.5 44C69.7445 44 70.75 45.0055 70.75 46.25V48.5H74.125C75.9883 48.5 77.5 50.0117 77.5 51.875V55.25H46V51.875C46 50.0117 47.5117 48.5 49.375 48.5H52.75V46.25C52.75 45.0055 53.7555 44 55 44ZM46 57.5H77.5V76.625C77.5 78.4883 75.9883 80 74.125 80H49.375C47.5117 80 46 78.4883 46 76.625V57.5ZM51.625 62C51.0062 62 50.5 62.5062 50.5 63.125V69.875C50.5 70.4938 51.0062 71 51.625 71H58.375C58.9938 71 59.5 70.4938 59.5 69.875V63.125C59.5 62.5062 58.9938 62 58.375 62H51.625Z" fill="#7C6DA5"/>
<defs>
<filter id="filter0_ddd_221_43" x="0" y="0" width="122" height="122" filterUnits="userSpaceOnUse" color-interpolation-filters="sRGB">
<feFlood flood-opacity="0" result="BackgroundImageFix"/>
<feColorMatrix in="SourceAlpha" type="matrix" values="0 0 0 0 0 0 0 0 0 0 0 0 0 0 0 0 0 0 127 0" result="hardAlpha"/>
<feOffset dx="4" dy="4"/>
<feGaussianBlur stdDeviation="10"/>
<feColorMatrix type="matrix" values="0 0 0 0 0.434896 0 0 0 0 0.548322 0 0 0 0 0.690104 0 0 0 0.41 0"/>
<feBlend mode="normal" in2="BackgroundImageFix" result="effect1_dropShadow_221_43"/>
<feColorMatrix in="SourceAlpha" type="matrix" values="0 0 0 0 0 0 0 0 0 0 0 0 0 0 0 0 0 0 127 0" result="hardAlpha"/>
<feOffset dx="-6" dy="-6"/>
<feGaussianBlur stdDeviation="10"/>
<feColorMatrix type="matrix" values="0 0 0 0 1 0 0 0 0 1 0 0 0 0 1 0 0 0 1 0"/>
<feBlend mode="normal" in2="effect1_dropShadow_221_43" result="effect2_dropShadow_221_43"/>
<feColorMatrix in="SourceAlpha" type="matrix" values="0 0 0 0 0 0 0 0 0 0 0 0 0 0 0 0 0 0 127 0" result="hardAlpha"/>
<feOffset dx="2" dy="2"/>
<feGaussianBlur stdDeviation="2"/>
<feColorMatrix type="matrix" values="0 0 0 0 0.446076 0 0 0 0 0.558333 0 0 0 0 0.67059 0 0 0 0.1 0"/>
<feBlend mode="normal" in2="effect2_dropShadow_221_43" result="effect3_dropShadow_221_43"/>
<feBlend mode="normal" in="SourceGraphic" in2="effect3_dropShadow_221_43" result="shape"/>
</filter>
<linearGradient id="paint0_linear_221_43" x1="93.7593" y1="92.8823" x2="39.5516" y2="95.1334" gradientUnits="userSpaceOnUse">
<stop stop-color="#D6E3F3"/>
<stop offset="1" stop-color="white"/>
</linearGradient>
</defs>
</svg>
