<svg width="110" height="110" viewBox="0 0 110 110" fill="none" xmlns="http://www.w3.org/2000/svg">
<g filter="url(#filter0_ddd_188_59)">
<rect x="27" y="27" width="58" height="58" rx="20" fill="#E3E7F7"/>
<rect x="26.5" y="26.5" width="59" height="59" rx="20.5" stroke="url(#paint0_linear_188_59)" stroke-opacity="0.46"/>
</g>
<g filter="url(#filter1_i_188_59)">
<path d="M51.7388 41.6941C51.7388 40.8978 51.1055 40.2571 50.3184 40.2571C49.5312 40.2571 48.898 40.8978 48.898 41.6941V44.0892H46.5306C44.4414 44.0892 42.7429 45.8077 42.7429 47.9214V48.8794V51.7535V67.0821C42.7429 69.1957 44.4414 70.9142 46.5306 70.9142H65.4694C67.5586 70.9142 69.2571 69.1957 69.2571 67.0821V51.7535V48.8794V47.9214C69.2571 45.8077 67.5586 44.0892 65.4694 44.0892H63.102V41.6941C63.102 40.8978 62.4688 40.2571 61.6816 40.2571C60.8945 40.2571 60.2612 40.8978 60.2612 41.6941V44.0892H51.7388V41.6941ZM45.5837 51.7535H66.4163V67.0821C66.4163 67.609 65.9902 68.0401 65.4694 68.0401H46.5306C46.0098 68.0401 45.5837 67.609 45.5837 67.0821V51.7535Z" fill="#7D6EA6"/>
</g>
<defs>
<filter id="filter0_ddd_188_59" x="0" y="0" width="110" height="110" filterUnits="userSpaceOnUse" color-interpolation-filters="sRGB">
<feFlood flood-opacity="0" result="BackgroundImageFix"/>
<feColorMatrix in="SourceAlpha" type="matrix" values="0 0 0 0 0 0 0 0 0 0 0 0 0 0 0 0 0 0 127 0" result="hardAlpha"/>
<feOffset dx="4" dy="4"/>
<feGaussianBlur stdDeviation="10"/>
<feColorMatrix type="matrix" values="0 0 0 0 0.434896 0 0 0 0 0.548322 0 0 0 0 0.690104 0 0 0 0.41 0"/>
<feBlend mode="normal" in2="BackgroundImageFix" result="effect1_dropShadow_188_59"/>
<feColorMatrix in="SourceAlpha" type="matrix" values="0 0 0 0 0 0 0 0 0 0 0 0 0 0 0 0 0 0 127 0" result="hardAlpha"/>
<feOffset dx="-6" dy="-6"/>
<feGaussianBlur stdDeviation="10"/>
<feColorMatrix type="matrix" values="0 0 0 0 1 0 0 0 0 1 0 0 0 0 1 0 0 0 1 0"/>
<feBlend mode="normal" in2="effect1_dropShadow_188_59" result="effect2_dropShadow_188_59"/>
<feColorMatrix in="SourceAlpha" type="matrix" values="0 0 0 0 0 0 0 0 0 0 0 0 0 0 0 0 0 0 127 0" result="hardAlpha"/>
<feOffset dx="2" dy="2"/>
<feGaussianBlur stdDeviation="2"/>
<feColorMatrix type="matrix" values="0 0 0 0 0.446076 0 0 0 0 0.558333 0 0 0 0 0.67059 0 0 0 0.1 0"/>
<feBlend mode="normal" in2="effect2_dropShadow_188_59" result="effect3_dropShadow_188_59"/>
<feBlend mode="normal" in="SourceGraphic" in2="effect3_dropShadow_188_59" result="shape"/>
</filter>
<filter id="filter1_i_188_59" x="42.7429" y="40.2571" width="26.5143" height="34.6572" filterUnits="userSpaceOnUse" color-interpolation-filters="sRGB">
<feFlood flood-opacity="0" result="BackgroundImageFix"/>
<feBlend mode="normal" in="SourceGraphic" in2="BackgroundImageFix" result="shape"/>
<feColorMatrix in="SourceAlpha" type="matrix" values="0 0 0 0 0 0 0 0 0 0 0 0 0 0 0 0 0 0 127 0" result="hardAlpha"/>
<feOffset dy="4"/>
<feGaussianBlur stdDeviation="2"/>
<feComposite in2="hardAlpha" operator="arithmetic" k2="-1" k3="1"/>
<feColorMatrix type="matrix" values="0 0 0 0 0 0 0 0 0 0 0 0 0 0 0 0 0 0 0.25 0"/>
<feBlend mode="normal" in2="shape" result="effect1_innerShadow_188_59"/>
</filter>
<linearGradient id="paint0_linear_188_59" x1="82.3148" y1="81.5882" x2="37.3999" y2="83.4534" gradientUnits="userSpaceOnUse">
<stop stop-color="#D6E3F3"/>
<stop offset="1" stop-color="white"/>
</linearGradient>
</defs>
</svg>
