<svg width="122" height="122" viewBox="0 0 122 122" fill="none" xmlns="http://www.w3.org/2000/svg">
<g filter="url(#filter0_ddd_221_43)">
<rect x="27" y="27" width="70" height="70" rx="20" fill="#E3E7F7"/>
<rect x="26.5" y="26.5" width="71" height="71" rx="20.5" stroke="url(#paint0_linear_221_43)" stroke-opacity="0.46"/>
</g>
<g filter="url(#filter1_i_221_43)">
<path d="M55.6571 45.2445L55.1429 46.25H48.2857C47.0214 46.25 46 47.2555 46 48.5C46 49.7445 47.0214 50.75 48.2857 50.75H75.7143C76.9786 50.75 78 49.7445 78 48.5C78 47.2555 76.9786 46.25 75.7143 46.25H68.8571L68.3429 45.2445C67.9571 44.4781 67.1643 44 66.3 44H57.7C56.8357 44 56.0429 44.4781 55.6571 45.2445ZM75.7143 53H48.2857L49.8 76.8359C49.9143 78.6148 51.4143 80 53.2214 80H70.7786C72.5857 80 74.0857 78.6148 74.2 76.8359L75.7143 53Z" fill="#7C6DA5"/>
</g>
<defs>
<filter id="filter0_ddd_221_43" x="0" y="0" width="122" height="122" filterUnits="userSpaceOnUse" color-interpolation-filters="sRGB">
<feFlood flood-opacity="0" result="BackgroundImageFix"/>
<feColorMatrix in="SourceAlpha" type="matrix" values="0 0 0 0 0 0 0 0 0 0 0 0 0 0 0 0 0 0 127 0" result="hardAlpha"/>
<feOffset dx="4" dy="4"/>
<feGaussianBlur stdDeviation="10"/>
<feColorMatrix type="matrix" values="0 0 0 0 0.434896 0 0 0 0 0.548322 0 0 0 0 0.690104 0 0 0 0.41 0"/>
<feBlend mode="normal" in2="BackgroundImageFix" result="effect1_dropShadow_221_43"/>
<feColorMatrix in="SourceAlpha" type="matrix" values="0 0 0 0 0 0 0 0 0 0 0 0 0 0 0 0 0 0 127 0" result="hardAlpha"/>
<feOffset dx="-6" dy="-6"/>
<feGaussianBlur stdDeviation="10"/>
<feColorMatrix type="matrix" values="0 0 0 0 1 0 0 0 0 1 0 0 0 0 1 0 0 0 1 0"/>
<feBlend mode="normal" in2="effect1_dropShadow_221_43" result="effect2_dropShadow_221_43"/>
<feColorMatrix in="SourceAlpha" type="matrix" values="0 0 0 0 0 0 0 0 0 0 0 0 0 0 0 0 0 0 127 0" result="hardAlpha"/>
<feOffset dx="2" dy="2"/>
<feGaussianBlur stdDeviation="2"/>
<feColorMatrix type="matrix" values="0 0 0 0 0.446076 0 0 0 0 0.558333 0 0 0 0 0.67059 0 0 0 0.1 0"/>
<feBlend mode="normal" in2="effect2_dropShadow_221_43" result="effect3_dropShadow_221_43"/>
<feBlend mode="normal" in="SourceGraphic" in2="effect3_dropShadow_221_43" result="shape"/>
</filter>
<filter id="filter1_i_221_43" x="46" y="44" width="32" height="40" filterUnits="userSpaceOnUse" color-interpolation-filters="sRGB">
<feFlood flood-opacity="0" result="BackgroundImageFix"/>
<feBlend mode="normal" in="SourceGraphic" in2="BackgroundImageFix" result="shape"/>
<feColorMatrix in="SourceAlpha" type="matrix" values="0 0 0 0 0 0 0 0 0 0 0 0 0 0 0 0 0 0 127 0" result="hardAlpha"/>
<feOffset dy="4"/>
<feGaussianBlur stdDeviation="2"/>
<feComposite in2="hardAlpha" operator="arithmetic" k2="-1" k3="1"/>
<feColorMatrix type="matrix" values="0 0 0 0 0 0 0 0 0 0 0 0 0 0 0 0 0 0 0.25 0"/>
<feBlend mode="normal" in2="shape" result="effect1_innerShadow_221_43"/>
</filter>
<linearGradient id="paint0_linear_221_43" x1="93.7593" y1="92.8823" x2="39.5516" y2="95.1334" gradientUnits="userSpaceOnUse">
<stop stop-color="#D6E3F3"/>
<stop offset="1" stop-color="white"/>
</linearGradient>
</defs>
</svg>
