<svg width="110" height="110" viewBox="0 0 110 110" fill="none" xmlns="http://www.w3.org/2000/svg">
<g filter="url(#filter0_ddd_188_58)">
<rect x="27" y="27" width="58" height="58" rx="20" fill="#E3E7F7"/>
<rect x="26.5" y="26.5" width="59" height="59" rx="20.5" stroke="url(#paint0_linear_188_58)" stroke-opacity="0.46"/>
</g>
<g filter="url(#filter1_i_188_58)">
<path d="M50.3184 40.2571C51.3659 40.2571 52.2122 41.1133 52.2122 42.1732V44.0892H59.7878V42.1732C59.7878 41.1133 60.6341 40.2571 61.6816 40.2571C62.7292 40.2571 63.5755 41.1133 63.5755 42.1732V44.0892H66.4163C67.9847 44.0892 69.2571 45.3766 69.2571 46.9633V49.8374H42.7429V46.9633C42.7429 45.3766 44.0153 44.0892 45.5837 44.0892H48.4245V42.1732C48.4245 41.1133 49.2708 40.2571 50.3184 40.2571ZM42.7429 51.7535H69.2571V68.0401C69.2571 69.6269 67.9847 70.9142 66.4163 70.9142H45.5837C44.0153 70.9142 42.7429 69.6269 42.7429 68.0401V51.7535ZM47.4776 55.5857C46.9567 55.5857 46.5306 56.0168 46.5306 56.5437V60.3758C46.5306 60.9027 46.9567 61.3339 47.4776 61.3339H64.5225C65.0433 61.3339 65.4694 60.9027 65.4694 60.3758V56.5437C65.4694 56.0168 65.0433 55.5857 64.5225 55.5857H47.4776Z" fill="#7D6EA6"/>
</g>
<defs>
<filter id="filter0_ddd_188_58" x="0" y="0" width="110" height="110" filterUnits="userSpaceOnUse" color-interpolation-filters="sRGB">
<feFlood flood-opacity="0" result="BackgroundImageFix"/>
<feColorMatrix in="SourceAlpha" type="matrix" values="0 0 0 0 0 0 0 0 0 0 0 0 0 0 0 0 0 0 127 0" result="hardAlpha"/>
<feOffset dx="4" dy="4"/>
<feGaussianBlur stdDeviation="10"/>
<feColorMatrix type="matrix" values="0 0 0 0 0.434896 0 0 0 0 0.548322 0 0 0 0 0.690104 0 0 0 0.41 0"/>
<feBlend mode="normal" in2="BackgroundImageFix" result="effect1_dropShadow_188_58"/>
<feColorMatrix in="SourceAlpha" type="matrix" values="0 0 0 0 0 0 0 0 0 0 0 0 0 0 0 0 0 0 127 0" result="hardAlpha"/>
<feOffset dx="-6" dy="-6"/>
<feGaussianBlur stdDeviation="10"/>
<feColorMatrix type="matrix" values="0 0 0 0 1 0 0 0 0 1 0 0 0 0 1 0 0 0 1 0"/>
<feBlend mode="normal" in2="effect1_dropShadow_188_58" result="effect2_dropShadow_188_58"/>
<feColorMatrix in="SourceAlpha" type="matrix" values="0 0 0 0 0 0 0 0 0 0 0 0 0 0 0 0 0 0 127 0" result="hardAlpha"/>
<feOffset dx="2" dy="2"/>
<feGaussianBlur stdDeviation="2"/>
<feColorMatrix type="matrix" values="0 0 0 0 0.446076 0 0 0 0 0.558333 0 0 0 0 0.67059 0 0 0 0.1 0"/>
<feBlend mode="normal" in2="effect2_dropShadow_188_58" result="effect3_dropShadow_188_58"/>
<feBlend mode="normal" in="SourceGraphic" in2="effect3_dropShadow_188_58" result="shape"/>
</filter>
<filter id="filter1_i_188_58" x="42.7429" y="40.2571" width="26.5143" height="34.6572" filterUnits="userSpaceOnUse" color-interpolation-filters="sRGB">
<feFlood flood-opacity="0" result="BackgroundImageFix"/>
<feBlend mode="normal" in="SourceGraphic" in2="BackgroundImageFix" result="shape"/>
<feColorMatrix in="SourceAlpha" type="matrix" values="0 0 0 0 0 0 0 0 0 0 0 0 0 0 0 0 0 0 127 0" result="hardAlpha"/>
<feOffset dy="4"/>
<feGaussianBlur stdDeviation="2"/>
<feComposite in2="hardAlpha" operator="arithmetic" k2="-1" k3="1"/>
<feColorMatrix type="matrix" values="0 0 0 0 0 0 0 0 0 0 0 0 0 0 0 0 0 0 0.25 0"/>
<feBlend mode="normal" in2="shape" result="effect1_innerShadow_188_58"/>
</filter>
<linearGradient id="paint0_linear_188_58" x1="82.3148" y1="81.5882" x2="37.3999" y2="83.4534" gradientUnits="userSpaceOnUse">
<stop stop-color="#D6E3F3"/>
<stop offset="1" stop-color="white"/>
</linearGradient>
</defs>
</svg>
