<svg width="110" height="110" viewBox="0 0 110 110" fill="none" xmlns="http://www.w3.org/2000/svg">
<g filter="url(#filter0_ddd_188_60)">
<rect x="27" y="27" width="58" height="58" rx="20" fill="#E3E7F7"/>
<rect x="26.5" y="26.5" width="59" height="59" rx="20.5" stroke="url(#paint0_linear_188_60)" stroke-opacity="0.46"/>
</g>
<g filter="url(#filter1_i_188_60)">
<path d="M48.4245 42.1732V44.0892H45.5837C44.0153 44.0892 42.7429 45.3766 42.7429 46.9633V49.8374H69.2571V46.9633C69.2571 45.3766 67.9847 44.0892 66.4163 44.0892H63.5755V42.1732C63.5755 41.1133 62.7292 40.2571 61.6816 40.2571C60.6341 40.2571 59.7878 41.1133 59.7878 42.1732V44.0892H52.2122V42.1732C52.2122 41.1133 51.3659 40.2571 50.3184 40.2571C49.2708 40.2571 48.4245 41.1133 48.4245 42.1732ZM69.2571 51.7535H42.7429V68.0401C42.7429 69.6269 44.0153 70.9142 45.5837 70.9142H66.4163C67.9847 70.9142 69.2571 69.6269 69.2571 68.0401V51.7535Z" fill="#7D6EA6"/>
</g>
<defs>
<filter id="filter0_ddd_188_60" x="0" y="0" width="110" height="110" filterUnits="userSpaceOnUse" color-interpolation-filters="sRGB">
<feFlood flood-opacity="0" result="BackgroundImageFix"/>
<feColorMatrix in="SourceAlpha" type="matrix" values="0 0 0 0 0 0 0 0 0 0 0 0 0 0 0 0 0 0 127 0" result="hardAlpha"/>
<feOffset dx="4" dy="4"/>
<feGaussianBlur stdDeviation="10"/>
<feColorMatrix type="matrix" values="0 0 0 0 0.434896 0 0 0 0 0.548322 0 0 0 0 0.690104 0 0 0 0.41 0"/>
<feBlend mode="normal" in2="BackgroundImageFix" result="effect1_dropShadow_188_60"/>
<feColorMatrix in="SourceAlpha" type="matrix" values="0 0 0 0 0 0 0 0 0 0 0 0 0 0 0 0 0 0 127 0" result="hardAlpha"/>
<feOffset dx="-6" dy="-6"/>
<feGaussianBlur stdDeviation="10"/>
<feColorMatrix type="matrix" values="0 0 0 0 1 0 0 0 0 1 0 0 0 0 1 0 0 0 1 0"/>
<feBlend mode="normal" in2="effect1_dropShadow_188_60" result="effect2_dropShadow_188_60"/>
<feColorMatrix in="SourceAlpha" type="matrix" values="0 0 0 0 0 0 0 0 0 0 0 0 0 0 0 0 0 0 127 0" result="hardAlpha"/>
<feOffset dx="2" dy="2"/>
<feGaussianBlur stdDeviation="2"/>
<feColorMatrix type="matrix" values="0 0 0 0 0.446076 0 0 0 0 0.558333 0 0 0 0 0.67059 0 0 0 0.1 0"/>
<feBlend mode="normal" in2="effect2_dropShadow_188_60" result="effect3_dropShadow_188_60"/>
<feBlend mode="normal" in="SourceGraphic" in2="effect3_dropShadow_188_60" result="shape"/>
</filter>
<filter id="filter1_i_188_60" x="42.7429" y="40.2571" width="26.5143" height="34.6572" filterUnits="userSpaceOnUse" color-interpolation-filters="sRGB">
<feFlood flood-opacity="0" result="BackgroundImageFix"/>
<feBlend mode="normal" in="SourceGraphic" in2="BackgroundImageFix" result="shape"/>
<feColorMatrix in="SourceAlpha" type="matrix" values="0 0 0 0 0 0 0 0 0 0 0 0 0 0 0 0 0 0 127 0" result="hardAlpha"/>
<feOffset dy="4"/>
<feGaussianBlur stdDeviation="2"/>
<feComposite in2="hardAlpha" operator="arithmetic" k2="-1" k3="1"/>
<feColorMatrix type="matrix" values="0 0 0 0 0 0 0 0 0 0 0 0 0 0 0 0 0 0 0.25 0"/>
<feBlend mode="normal" in2="shape" result="effect1_innerShadow_188_60"/>
</filter>
<linearGradient id="paint0_linear_188_60" x1="82.3148" y1="81.5882" x2="37.3999" y2="83.4534" gradientUnits="userSpaceOnUse">
<stop stop-color="#D6E3F3"/>
<stop offset="1" stop-color="white"/>
</linearGradient>
</defs>
</svg>
